<svg xmlns="http://www.w3.org/2000/svg" viewBox="0 0 2420.05 672.71"><defs><style>.cls-1{fill:#ffffff05;}</style></defs><g id="Calque_2" data-name="Calque 2"><g id="Calque_1-2" data-name="Calque 1"><polygon class="cls-1" points="186.45 325.91 82.04 83.53 82.04 1.49 0 1.49 0 672.71 82.04 672.71 82.04 255.06 186.45 497.44 186.45 672.71 269.23 672.71 269.23 1.49 186.45 1.49 186.45 325.91"/><path class="cls-1" d="M824.85,219.26l38-217.77H601.11V590.67H308.76v82H608.57c45.5,0,74.58-35.06,74.58-82V299.81H713c10.44,0,16.41,8.2,18.65,21.63l47.73,351.27h83.53L818.14,354.25c-3.73-29.08-19.39-52.95-41.76-65.63C801.73,275.2,819.63,250.59,824.85,219.26ZM741.32,217H683.15V84.27h81.29Z"/><path class="cls-1" d="M379.61,545.18H484c42.52,0,71.6-35.8,71.6-82V82c0-46.24-28.34-82-73.09-82h-94c-47.73,0-79.8,33.56-79.8,82v381.1C308.76,508.63,337.85,545.18,379.61,545.18ZM391.55,82h82v381.1h-82Z"/><path class="cls-1" d="M924,78.31,916.57,217H892.71v82.78h20.13l-20.13,372.9h82.78l19.39-372.9h78.31v372.9h82V1.49H890.47C890.47,38,906.88,66.38,924,78.31Zm82,6h67.12V217H999.36Z"/><rect class="cls-1" x="1312.57" y="1.49" width="82.04" height="671.22"/><path class="cls-1" d="M1889.81,1.49H1440.1V84.27h293.09l.75,463.89h81.28l.58-76.15c.1-1.94.18-3.89.18-5.89l-.75-381.85h75.33Z"/><path class="cls-1" d="M1688.45,211.06c0-47-29.84-82-76.07-82H1440.1l.74,543.69h82V211.81h82.78V590.67c0,49.22,32.82,82,82,82h127.53V588.43H1688.45Z"/><path class="cls-1" d="M2067.3,299.81c49.22,0,79.8-32.82,82-81.29l11.94-217H1912.92V590.67c0,49.22,32.81,82,82,82h165.57v-276c-49.22,0-82,32.82-82,82V589.92H1995.7V299.81ZM1995.7,84.27H2074L2067.3,217h-71.6Z"/><path class="cls-1" d="M2338,538.46v51.46H2277.6V1.49h-82.78V672.71h225.23V456.43C2370.82,456.43,2338,489.24,2338,538.46Z"/></g></g></svg>